G75*
%MOIN*%
%OFA0B0*%
%FSLAX25Y25*%
%IPPOS*%
%LPD*%
%AMOC8*
5,1,8,0,0,1.08239X$1,22.5*
%
%ADD10R,0.00080X0.00080*%
%ADD11R,0.01920X0.00080*%
%ADD12R,0.03360X0.00080*%
%ADD13R,0.04400X0.00080*%
%ADD14R,0.05200X0.00080*%
%ADD15R,0.05840X0.00080*%
%ADD16R,0.06480X0.00080*%
%ADD17R,0.06960X0.00080*%
%ADD18R,0.07440X0.00080*%
%ADD19R,0.07840X0.00080*%
%ADD20R,0.08320X0.00080*%
%ADD21R,0.08640X0.00080*%
%ADD22R,0.09120X0.00080*%
%ADD23R,0.09600X0.00080*%
%ADD24R,0.09760X0.00080*%
%ADD25R,0.10080X0.00080*%
%ADD26R,0.10560X0.00080*%
%ADD27R,0.10720X0.00080*%
%ADD28R,0.11040X0.00080*%
%ADD29R,0.11360X0.00080*%
%ADD30R,0.11680X0.00080*%
%ADD31R,0.11840X0.00080*%
%ADD32R,0.12160X0.00080*%
%ADD33R,0.12480X0.00080*%
%ADD34R,0.12640X0.00080*%
%ADD35R,0.05680X0.00080*%
%ADD36R,0.00160X0.00080*%
%ADD37R,0.05600X0.00080*%
%ADD38R,0.05040X0.00080*%
%ADD39R,0.05120X0.00080*%
%ADD40R,0.04720X0.00080*%
%ADD41R,0.04640X0.00080*%
%ADD42R,0.04320X0.00080*%
%ADD43R,0.04080X0.00080*%
%ADD44R,0.04240X0.00080*%
%ADD45R,0.03920X0.00080*%
%ADD46R,0.03760X0.00080*%
%ADD47R,0.03680X0.00080*%
%ADD48R,0.03520X0.00080*%
%ADD49R,0.03600X0.00080*%
%ADD50R,0.03520X0.00080*%
%ADD51R,0.03440X0.00080*%
%ADD52R,0.03280X0.00080*%
%ADD53R,0.03200X0.00080*%
%ADD54R,0.03120X0.00080*%
%ADD55R,0.03120X0.00080*%
%ADD56R,0.03040X0.00080*%
%ADD57R,0.03040X0.00080*%
%ADD58R,0.02960X0.00080*%
%ADD59R,0.02880X0.00080*%
%ADD60R,0.02800X0.00080*%
%ADD61R,0.02720X0.00080*%
%ADD62R,0.02720X0.00080*%
%ADD63R,0.02640X0.00080*%
%ADD64R,0.02640X0.00080*%
%ADD65R,0.02560X0.00080*%
%ADD66R,0.02480X0.00080*%
%ADD67R,0.02400X0.00080*%
%ADD68R,0.02320X0.00080*%
%ADD69R,0.02320X0.00080*%
%ADD70R,0.02240X0.00080*%
%ADD71R,0.02240X0.00080*%
%ADD72R,0.02160X0.00080*%
%ADD73R,0.02080X0.00080*%
%ADD74R,0.01920X0.00080*%
%ADD75R,0.00880X0.00080*%
%ADD76R,0.02000X0.00080*%
%ADD77R,0.01120X0.00080*%
%ADD78R,0.01360X0.00080*%
%ADD79R,0.01600X0.00080*%
%ADD80R,0.01760X0.00080*%
%ADD81R,0.03440X0.00080*%
%ADD82R,0.05760X0.00080*%
%ADD83R,0.05840X0.00080*%
%ADD84R,0.03920X0.00080*%
%ADD85R,0.03840X0.00080*%
%ADD86R,0.04000X0.00080*%
%ADD87R,0.01840X0.00080*%
%ADD88R,0.00240X0.00080*%
%ADD89R,0.04160X0.00080*%
%ADD90R,0.04560X0.00080*%
%ADD91R,0.04800X0.00080*%
%ADD92R,0.11440X0.00080*%
%ADD93R,0.10800X0.00080*%
%ADD94R,0.10480X0.00080*%
%ADD95R,0.10160X0.00080*%
%ADD96R,0.09440X0.00080*%
%ADD97R,0.07920X0.00080*%
D10*
X0033580Y0019340D03*
X0033980Y0019340D03*
X0037740Y0014300D03*
X0038780Y0014140D03*
X0039260Y0014140D03*
X0039900Y0014140D03*
X0040060Y0014140D03*
X0040220Y0014140D03*
X0040940Y0014220D03*
X0041340Y0014300D03*
X0042300Y0014540D03*
X0041820Y0012380D03*
X0041340Y0012300D03*
X0040860Y0012220D03*
X0040700Y0012220D03*
X0038300Y0012220D03*
X0037740Y0012300D03*
X0036860Y0012460D03*
X0045500Y0027900D03*
X0040940Y0033020D03*
X0040780Y0033020D03*
X0040300Y0033100D03*
X0040140Y0033100D03*
X0039980Y0033100D03*
X0039820Y0033100D03*
X0039180Y0033100D03*
X0039020Y0033100D03*
X0038860Y0033100D03*
X0038140Y0033020D03*
X0036780Y0032700D03*
X0036860Y0034780D03*
X0038300Y0035020D03*
X0038460Y0035020D03*
X0040620Y0035020D03*
X0040780Y0035020D03*
X0041340Y0034940D03*
X0041820Y0034860D03*
X0042220Y0034780D03*
X0042540Y0034700D03*
D11*
X0039540Y0035020D03*
X0033780Y0027900D03*
X0033780Y0027740D03*
X0033780Y0027660D03*
X0033780Y0027420D03*
X0033780Y0027340D03*
X0033780Y0027100D03*
X0033780Y0027020D03*
X0033780Y0026860D03*
X0033780Y0026780D03*
X0033780Y0026700D03*
X0033780Y0026540D03*
X0033780Y0026380D03*
X0033780Y0026220D03*
X0033780Y0025980D03*
X0033780Y0025900D03*
X0033780Y0025740D03*
X0033780Y0025500D03*
X0033780Y0025340D03*
X0033780Y0025260D03*
X0033780Y0025100D03*
X0033780Y0024860D03*
X0033780Y0024700D03*
X0033780Y0024620D03*
X0033780Y0024460D03*
X0033780Y0024220D03*
X0033780Y0024060D03*
X0033780Y0023980D03*
X0033780Y0023820D03*
X0033780Y0023580D03*
X0033780Y0023500D03*
X0033780Y0023340D03*
X0033780Y0023180D03*
X0033780Y0023020D03*
X0033780Y0022860D03*
X0033780Y0022700D03*
X0033780Y0022620D03*
X0033780Y0022540D03*
X0033780Y0022300D03*
X0033780Y0022140D03*
X0033780Y0022060D03*
X0029300Y0021420D03*
X0029140Y0022220D03*
X0029140Y0022380D03*
X0029140Y0022460D03*
X0029140Y0022620D03*
X0029140Y0024620D03*
X0029140Y0024780D03*
X0029140Y0024860D03*
X0029140Y0025100D03*
X0045300Y0025020D03*
X0045300Y0024860D03*
X0045300Y0024700D03*
X0045300Y0024540D03*
X0045300Y0024460D03*
X0045300Y0024300D03*
X0045300Y0024060D03*
X0045300Y0023900D03*
X0045300Y0023740D03*
X0045300Y0023580D03*
X0045300Y0023420D03*
X0045300Y0023260D03*
X0045300Y0023100D03*
X0045300Y0022940D03*
X0045300Y0022780D03*
X0045300Y0022620D03*
X0045300Y0022460D03*
X0045300Y0022300D03*
X0045300Y0022220D03*
X0045300Y0022060D03*
X0045300Y0021820D03*
X0045300Y0021660D03*
X0045300Y0021500D03*
X0045300Y0021340D03*
X0045300Y0021260D03*
X0045300Y0021100D03*
X0045300Y0020940D03*
X0045300Y0020780D03*
X0045300Y0020540D03*
X0045300Y0020380D03*
X0045300Y0020220D03*
X0045300Y0020060D03*
X0045300Y0019980D03*
X0045300Y0019820D03*
X0045300Y0019580D03*
X0045300Y0019420D03*
X0045300Y0019340D03*
X0049780Y0021420D03*
X0049940Y0022220D03*
X0049940Y0022380D03*
X0049940Y0022460D03*
X0049940Y0022620D03*
X0049940Y0024620D03*
X0049940Y0024780D03*
X0049940Y0025100D03*
X0045300Y0025180D03*
X0039540Y0012220D03*
D12*
X0039540Y0012300D03*
X0045620Y0015180D03*
X0034500Y0020540D03*
X0033460Y0015180D03*
X0044580Y0026700D03*
X0045620Y0032060D03*
D13*
X0044220Y0032780D03*
X0039500Y0034860D03*
X0034860Y0032780D03*
X0039500Y0012380D03*
D14*
X0039580Y0012460D03*
D15*
X0039580Y0012540D03*
D16*
X0039580Y0012620D03*
X0039500Y0034620D03*
D17*
X0039580Y0034540D03*
X0039500Y0012700D03*
D18*
X0039580Y0012780D03*
X0039500Y0034460D03*
D19*
X0039540Y0012860D03*
D20*
X0039540Y0012940D03*
X0039540Y0034300D03*
D21*
X0039540Y0034220D03*
X0039540Y0013020D03*
D22*
X0039540Y0013100D03*
X0039540Y0034140D03*
D23*
X0039540Y0013180D03*
D24*
X0039540Y0013260D03*
X0039540Y0033980D03*
D25*
X0039540Y0013340D03*
D26*
X0039540Y0013420D03*
D27*
X0039540Y0013500D03*
D28*
X0039540Y0013580D03*
X0039540Y0033660D03*
D29*
X0039540Y0013660D03*
D30*
X0039540Y0013740D03*
X0039540Y0033500D03*
D31*
X0039540Y0033420D03*
X0039540Y0013820D03*
D32*
X0039540Y0013900D03*
X0039540Y0033340D03*
D33*
X0039540Y0033260D03*
X0039540Y0013980D03*
D34*
X0039540Y0014060D03*
X0039540Y0033180D03*
D35*
X0035900Y0033100D03*
X0043180Y0014140D03*
D36*
X0038980Y0014140D03*
X0033780Y0019340D03*
D37*
X0035860Y0014140D03*
X0043220Y0033100D03*
D38*
X0043580Y0033020D03*
X0035500Y0033020D03*
X0043580Y0014220D03*
D39*
X0035540Y0014220D03*
X0039540Y0034780D03*
D40*
X0043820Y0032940D03*
X0043820Y0014300D03*
X0035260Y0014300D03*
D41*
X0035060Y0014380D03*
X0044020Y0014380D03*
D42*
X0044260Y0014460D03*
X0034820Y0014460D03*
D43*
X0034460Y0014620D03*
X0044460Y0014540D03*
X0044620Y0014620D03*
X0034460Y0032620D03*
D44*
X0034620Y0014540D03*
D45*
X0034300Y0014700D03*
X0044780Y0014700D03*
X0037500Y0022460D03*
X0037100Y0022220D03*
X0037980Y0022700D03*
X0038380Y0022940D03*
X0041100Y0024540D03*
X0041580Y0024780D03*
X0041980Y0025020D03*
X0042140Y0025100D03*
X0044780Y0032540D03*
X0034300Y0032540D03*
D46*
X0034140Y0032460D03*
X0044380Y0026460D03*
X0034700Y0020780D03*
X0033980Y0014860D03*
X0034140Y0014780D03*
X0044940Y0014780D03*
X0045100Y0032380D03*
X0044940Y0032460D03*
D47*
X0045220Y0032300D03*
X0034020Y0032380D03*
X0033860Y0014940D03*
X0045060Y0014860D03*
X0045220Y0014940D03*
D48*
X0045380Y0015020D03*
X0044500Y0026620D03*
X0045380Y0032220D03*
X0033700Y0032220D03*
D49*
X0033820Y0032300D03*
X0044460Y0026540D03*
X0034620Y0020700D03*
X0033740Y0015020D03*
D50*
X0045460Y0015100D03*
X0045460Y0032140D03*
X0033620Y0032140D03*
D51*
X0033500Y0032060D03*
X0039500Y0034940D03*
X0033580Y0015100D03*
D52*
X0033340Y0015260D03*
X0033260Y0015340D03*
X0045740Y0015260D03*
X0045820Y0015340D03*
X0045820Y0031900D03*
X0045740Y0031980D03*
X0033340Y0031980D03*
X0033260Y0031900D03*
D53*
X0033140Y0031820D03*
X0044660Y0026780D03*
X0045940Y0031820D03*
X0034420Y0020460D03*
X0033140Y0015420D03*
X0045940Y0015420D03*
D54*
X0046060Y0015500D03*
X0033020Y0015500D03*
X0033020Y0031740D03*
X0046060Y0031740D03*
D55*
X0046140Y0031660D03*
X0032940Y0031660D03*
X0032940Y0015580D03*
X0046140Y0015580D03*
D56*
X0046260Y0015660D03*
X0032820Y0015660D03*
X0032820Y0031580D03*
X0046260Y0031580D03*
D57*
X0046340Y0031500D03*
X0044740Y0026860D03*
X0034340Y0020380D03*
X0032740Y0015740D03*
X0046340Y0015740D03*
X0032740Y0031500D03*
D58*
X0032620Y0031420D03*
X0032540Y0031340D03*
X0044780Y0026940D03*
X0046540Y0031340D03*
X0046460Y0031420D03*
X0034300Y0020300D03*
X0032540Y0015900D03*
X0032620Y0015820D03*
X0046460Y0015820D03*
X0046540Y0015900D03*
D59*
X0046660Y0015980D03*
X0046740Y0016060D03*
X0046820Y0016140D03*
X0032340Y0016060D03*
X0032260Y0016140D03*
X0032180Y0016220D03*
X0032180Y0031020D03*
X0032260Y0031100D03*
X0032340Y0031180D03*
X0032420Y0031260D03*
X0046660Y0031260D03*
X0046740Y0031180D03*
X0046820Y0031100D03*
D60*
X0046860Y0031020D03*
X0044860Y0027020D03*
X0034220Y0020220D03*
X0032460Y0015980D03*
X0046860Y0016220D03*
D61*
X0046980Y0016300D03*
X0047140Y0016460D03*
X0032100Y0016300D03*
X0031940Y0016460D03*
X0031940Y0030780D03*
X0032100Y0030940D03*
X0046980Y0030940D03*
X0047140Y0030780D03*
D62*
X0047220Y0030700D03*
X0047060Y0030860D03*
X0032020Y0030860D03*
X0031860Y0030700D03*
X0031860Y0016540D03*
X0032020Y0016380D03*
X0047060Y0016380D03*
X0047220Y0016540D03*
D63*
X0047260Y0016620D03*
X0047420Y0016780D03*
X0031820Y0016620D03*
X0031660Y0016780D03*
X0031500Y0016940D03*
X0031580Y0030380D03*
X0031660Y0030460D03*
X0031820Y0030620D03*
X0047260Y0030620D03*
X0047500Y0030380D03*
D64*
X0047340Y0030540D03*
X0044940Y0027100D03*
X0034140Y0020140D03*
X0031740Y0016700D03*
X0047340Y0016700D03*
X0031740Y0030540D03*
D65*
X0031540Y0030300D03*
X0031460Y0030220D03*
X0031380Y0030140D03*
X0047460Y0030460D03*
X0047540Y0030300D03*
X0047620Y0030220D03*
X0047700Y0030140D03*
X0047780Y0030060D03*
X0047780Y0017180D03*
X0047700Y0017100D03*
X0047620Y0017020D03*
X0047540Y0016940D03*
X0047540Y0016860D03*
X0031620Y0016860D03*
X0031460Y0017020D03*
X0031380Y0017100D03*
X0031300Y0017180D03*
D66*
X0031260Y0017260D03*
X0031180Y0017340D03*
X0031100Y0017420D03*
X0034060Y0020060D03*
X0045020Y0027180D03*
X0047820Y0029980D03*
X0047900Y0029900D03*
X0047980Y0029820D03*
X0031260Y0029980D03*
X0031260Y0030060D03*
X0031180Y0029900D03*
X0031100Y0029820D03*
X0047820Y0017260D03*
X0047900Y0017340D03*
X0047980Y0017420D03*
D67*
X0048020Y0017500D03*
X0048100Y0017580D03*
X0048100Y0017660D03*
X0048180Y0017740D03*
X0048260Y0017820D03*
X0045060Y0027260D03*
X0048100Y0029580D03*
X0048100Y0029660D03*
X0048020Y0029740D03*
X0048180Y0029500D03*
X0048260Y0029420D03*
X0031060Y0029740D03*
X0030980Y0029660D03*
X0030980Y0029580D03*
X0030900Y0029500D03*
X0030820Y0029420D03*
X0030740Y0017980D03*
X0030820Y0017820D03*
X0030900Y0017740D03*
X0030980Y0017660D03*
X0030980Y0017580D03*
X0031060Y0017500D03*
D68*
X0030780Y0017900D03*
X0030700Y0018060D03*
X0030540Y0018300D03*
X0030380Y0018540D03*
X0030540Y0028940D03*
X0030540Y0029020D03*
X0030700Y0029180D03*
X0030700Y0029260D03*
X0030780Y0029340D03*
X0048300Y0029340D03*
X0048380Y0029260D03*
X0048380Y0029180D03*
X0048540Y0028940D03*
X0048540Y0018300D03*
X0048380Y0018060D03*
X0048380Y0017980D03*
X0048300Y0017900D03*
D69*
X0030620Y0018140D03*
X0034060Y0019980D03*
X0048460Y0018140D03*
X0048620Y0028860D03*
X0048460Y0029100D03*
X0030620Y0029100D03*
D70*
X0030500Y0028860D03*
X0030420Y0028780D03*
X0030420Y0028700D03*
X0030260Y0028460D03*
X0030180Y0028380D03*
X0030180Y0028300D03*
X0030180Y0018940D03*
X0030260Y0018780D03*
X0030260Y0018700D03*
X0030420Y0018460D03*
X0030500Y0018380D03*
X0030580Y0018220D03*
X0048500Y0018220D03*
X0048580Y0018380D03*
X0048660Y0018460D03*
X0048660Y0018540D03*
X0048820Y0018700D03*
X0048820Y0018780D03*
X0048900Y0018940D03*
X0048900Y0028300D03*
X0048900Y0028380D03*
X0048820Y0028460D03*
X0048660Y0028700D03*
X0048660Y0028780D03*
X0048500Y0029020D03*
D71*
X0048740Y0028620D03*
X0048740Y0018620D03*
X0030340Y0018620D03*
X0029940Y0019420D03*
X0029940Y0027820D03*
X0030340Y0028620D03*
D72*
X0030300Y0028540D03*
X0030140Y0028220D03*
X0030060Y0028140D03*
X0030060Y0028060D03*
X0029980Y0027900D03*
X0029900Y0027740D03*
X0029900Y0027660D03*
X0033980Y0019900D03*
X0030220Y0018860D03*
X0030140Y0019020D03*
X0030060Y0019100D03*
X0030060Y0019180D03*
X0029980Y0019340D03*
X0029900Y0019500D03*
X0045100Y0027340D03*
X0048780Y0028540D03*
X0048940Y0028220D03*
X0049020Y0028140D03*
X0049020Y0028060D03*
X0049100Y0027980D03*
X0049100Y0027900D03*
X0049100Y0027820D03*
X0049180Y0027740D03*
X0049340Y0019900D03*
X0049260Y0019740D03*
X0049180Y0019500D03*
X0049180Y0019420D03*
X0049100Y0019340D03*
X0049020Y0019260D03*
X0049020Y0019180D03*
X0048940Y0019020D03*
X0048860Y0018860D03*
D73*
X0048980Y0019100D03*
X0049220Y0019580D03*
X0049220Y0019660D03*
X0049300Y0019820D03*
X0049380Y0019980D03*
X0049380Y0020060D03*
X0049460Y0020220D03*
X0049460Y0020300D03*
X0049460Y0020380D03*
X0049540Y0020460D03*
X0049620Y0020620D03*
X0049620Y0020780D03*
X0049700Y0020940D03*
X0049700Y0021100D03*
X0049780Y0021340D03*
X0049780Y0025820D03*
X0049700Y0026220D03*
X0049620Y0026380D03*
X0049620Y0026540D03*
X0049540Y0026780D03*
X0049460Y0026940D03*
X0049460Y0027020D03*
X0049460Y0027100D03*
X0049380Y0027180D03*
X0049380Y0027260D03*
X0049300Y0027340D03*
X0049300Y0027420D03*
X0049300Y0027500D03*
X0049220Y0027580D03*
X0049220Y0027660D03*
X0030020Y0027980D03*
X0029860Y0027580D03*
X0029780Y0027500D03*
X0029780Y0027420D03*
X0029780Y0027340D03*
X0029700Y0027260D03*
X0029700Y0027180D03*
X0029620Y0027100D03*
X0029620Y0027020D03*
X0029620Y0026940D03*
X0029540Y0026780D03*
X0029460Y0026540D03*
X0029460Y0026380D03*
X0029380Y0026300D03*
X0029140Y0022300D03*
X0029300Y0021340D03*
X0029460Y0020860D03*
X0029460Y0020620D03*
X0029540Y0020540D03*
X0029540Y0020460D03*
X0029620Y0020300D03*
X0029620Y0020220D03*
X0029700Y0020060D03*
X0029700Y0019980D03*
X0029780Y0019900D03*
X0029780Y0019820D03*
X0029780Y0019740D03*
X0029860Y0019660D03*
X0029860Y0019580D03*
X0030020Y0019260D03*
D74*
X0029060Y0022860D03*
X0029060Y0023020D03*
X0029060Y0023100D03*
X0029060Y0023340D03*
X0029060Y0023420D03*
X0029060Y0023500D03*
X0029060Y0023580D03*
X0029060Y0023660D03*
X0029060Y0023740D03*
X0029060Y0023820D03*
X0029060Y0023900D03*
X0029060Y0024140D03*
X0029060Y0024300D03*
X0029060Y0024380D03*
X0029220Y0025500D03*
X0037620Y0025500D03*
X0037620Y0025420D03*
X0037620Y0025340D03*
X0037620Y0025260D03*
X0037620Y0025180D03*
X0037620Y0025100D03*
X0037620Y0025020D03*
X0037620Y0024940D03*
X0037620Y0024860D03*
X0037620Y0024780D03*
X0037620Y0024700D03*
X0037620Y0024620D03*
X0037620Y0024540D03*
X0037620Y0024460D03*
X0037620Y0024380D03*
X0037620Y0024300D03*
X0037620Y0024220D03*
X0037620Y0025580D03*
X0037620Y0025660D03*
X0037620Y0025740D03*
X0037620Y0025820D03*
X0037620Y0025900D03*
X0037620Y0025980D03*
X0037620Y0026060D03*
X0037620Y0026140D03*
X0037620Y0026220D03*
X0037620Y0026300D03*
X0037620Y0026380D03*
X0037620Y0026460D03*
X0037620Y0026540D03*
X0037620Y0026620D03*
X0037620Y0026700D03*
X0037620Y0026780D03*
X0037620Y0026860D03*
X0037620Y0026940D03*
X0037620Y0027020D03*
X0037620Y0027100D03*
X0037620Y0027180D03*
X0037620Y0027260D03*
X0037620Y0027340D03*
X0037620Y0027420D03*
X0037620Y0027500D03*
X0037620Y0027580D03*
X0037620Y0027660D03*
X0037620Y0027740D03*
X0037620Y0027820D03*
X0037620Y0027900D03*
X0041460Y0027900D03*
X0041460Y0027820D03*
X0041460Y0027740D03*
X0041460Y0027660D03*
X0041460Y0027580D03*
X0041460Y0027500D03*
X0041460Y0027420D03*
X0041460Y0027340D03*
X0041460Y0027260D03*
X0041460Y0027180D03*
X0041460Y0027100D03*
X0041460Y0027020D03*
X0041460Y0026940D03*
X0041460Y0026860D03*
X0041460Y0026780D03*
X0041460Y0026700D03*
X0041460Y0026620D03*
X0041460Y0026540D03*
X0041460Y0026460D03*
X0041460Y0023020D03*
X0041460Y0022940D03*
X0041460Y0022860D03*
X0041460Y0022780D03*
X0041460Y0022700D03*
X0041460Y0022620D03*
X0041460Y0022540D03*
X0041460Y0022460D03*
X0041460Y0022380D03*
X0041460Y0022300D03*
X0041460Y0022220D03*
X0041460Y0022140D03*
X0041460Y0022060D03*
X0041460Y0021980D03*
X0041460Y0021900D03*
X0041460Y0021820D03*
X0041460Y0021740D03*
X0041460Y0021660D03*
X0041460Y0021580D03*
X0041460Y0021500D03*
X0041460Y0021420D03*
X0041460Y0021340D03*
X0041460Y0021260D03*
X0041460Y0021180D03*
X0041460Y0021100D03*
X0041460Y0021020D03*
X0041460Y0020940D03*
X0041460Y0020860D03*
X0041460Y0020780D03*
X0041460Y0020700D03*
X0041460Y0020620D03*
X0041460Y0020540D03*
X0041460Y0020460D03*
X0041460Y0020380D03*
X0041460Y0020300D03*
X0041460Y0020220D03*
X0041460Y0020140D03*
X0041460Y0020060D03*
X0041460Y0019980D03*
X0041460Y0019900D03*
X0041460Y0019820D03*
X0041460Y0019740D03*
X0041460Y0019660D03*
X0041460Y0019580D03*
X0041460Y0019500D03*
X0041460Y0019420D03*
X0041460Y0019340D03*
X0037620Y0019340D03*
X0037620Y0019420D03*
X0037620Y0019500D03*
X0037620Y0019580D03*
X0037620Y0019660D03*
X0037620Y0019740D03*
X0037620Y0019820D03*
X0037620Y0019900D03*
X0037620Y0019980D03*
X0037620Y0020060D03*
X0037620Y0020140D03*
X0037620Y0020220D03*
X0037620Y0020300D03*
X0037620Y0020380D03*
X0037620Y0020460D03*
X0037620Y0020540D03*
X0037620Y0020620D03*
X0037620Y0020700D03*
X0037620Y0020780D03*
X0049860Y0021740D03*
X0050020Y0022860D03*
X0050020Y0023020D03*
X0050020Y0023180D03*
X0050020Y0023340D03*
X0050020Y0023420D03*
X0050020Y0023500D03*
X0050020Y0023580D03*
X0050020Y0023660D03*
X0050020Y0023740D03*
X0050020Y0023820D03*
X0050020Y0023980D03*
X0050020Y0024140D03*
X0050020Y0024300D03*
X0050020Y0024460D03*
X0049860Y0025420D03*
X0049860Y0025500D03*
D75*
X0045260Y0027820D03*
X0033740Y0019420D03*
D76*
X0033900Y0019820D03*
X0033820Y0022220D03*
X0033820Y0022380D03*
X0033820Y0022460D03*
X0033820Y0022780D03*
X0033820Y0022940D03*
X0033820Y0023100D03*
X0033820Y0023260D03*
X0033820Y0023420D03*
X0033820Y0023660D03*
X0033820Y0023740D03*
X0033820Y0023900D03*
X0033820Y0024140D03*
X0033820Y0024300D03*
X0033820Y0024380D03*
X0033820Y0024540D03*
X0033820Y0024780D03*
X0033820Y0024940D03*
X0033820Y0025020D03*
X0033820Y0025180D03*
X0033820Y0025420D03*
X0033820Y0025580D03*
X0033820Y0025660D03*
X0033820Y0025820D03*
X0033820Y0026060D03*
X0033820Y0026140D03*
X0033820Y0026300D03*
X0033820Y0026460D03*
X0033820Y0026620D03*
X0033820Y0026940D03*
X0033820Y0027180D03*
X0033820Y0027260D03*
X0033820Y0027500D03*
X0033820Y0027580D03*
X0033820Y0027820D03*
X0029580Y0026860D03*
X0029500Y0026700D03*
X0029500Y0026620D03*
X0029420Y0026460D03*
X0029420Y0026220D03*
X0029340Y0026140D03*
X0029340Y0026060D03*
X0029340Y0025980D03*
X0029340Y0025900D03*
X0029260Y0025820D03*
X0029260Y0025740D03*
X0029260Y0025660D03*
X0029260Y0025580D03*
X0029260Y0025420D03*
X0029180Y0025340D03*
X0029180Y0025260D03*
X0029180Y0025180D03*
X0029180Y0025020D03*
X0029100Y0024940D03*
X0029100Y0024700D03*
X0029100Y0024540D03*
X0029100Y0024460D03*
X0029100Y0024220D03*
X0029100Y0024060D03*
X0029100Y0023980D03*
X0029100Y0023260D03*
X0029100Y0023180D03*
X0029100Y0022940D03*
X0029100Y0022780D03*
X0029100Y0022700D03*
X0029100Y0022540D03*
X0029180Y0022140D03*
X0029180Y0022060D03*
X0029180Y0021980D03*
X0029180Y0021900D03*
X0029260Y0021820D03*
X0029180Y0021740D03*
X0029260Y0021660D03*
X0029260Y0021580D03*
X0029260Y0021500D03*
X0029340Y0021260D03*
X0029340Y0021180D03*
X0029340Y0021100D03*
X0029420Y0021020D03*
X0029420Y0020940D03*
X0029420Y0020780D03*
X0029500Y0020700D03*
X0029580Y0020380D03*
X0029660Y0020140D03*
X0045260Y0020140D03*
X0045260Y0020300D03*
X0045260Y0020460D03*
X0045260Y0020620D03*
X0045260Y0020700D03*
X0045260Y0020860D03*
X0045260Y0021020D03*
X0045260Y0021180D03*
X0045260Y0021420D03*
X0045260Y0021580D03*
X0045260Y0021740D03*
X0045260Y0021900D03*
X0045260Y0021980D03*
X0045260Y0022140D03*
X0045260Y0022380D03*
X0045260Y0022540D03*
X0045260Y0022700D03*
X0045260Y0022860D03*
X0045260Y0023020D03*
X0045260Y0023180D03*
X0045260Y0023340D03*
X0045260Y0023500D03*
X0045260Y0023660D03*
X0045260Y0023820D03*
X0045260Y0023980D03*
X0045260Y0024140D03*
X0045260Y0024220D03*
X0045260Y0024380D03*
X0045260Y0024620D03*
X0045260Y0024780D03*
X0045260Y0024940D03*
X0045260Y0025100D03*
X0045180Y0027420D03*
X0049500Y0026860D03*
X0049580Y0026700D03*
X0049580Y0026620D03*
X0049660Y0026460D03*
X0049660Y0026300D03*
X0049740Y0026140D03*
X0049740Y0026060D03*
X0049740Y0025980D03*
X0049740Y0025900D03*
X0049820Y0025740D03*
X0049820Y0025660D03*
X0049820Y0025580D03*
X0049900Y0025340D03*
X0049900Y0025260D03*
X0049900Y0025180D03*
X0049900Y0025020D03*
X0049900Y0024940D03*
X0049980Y0024860D03*
X0049980Y0024700D03*
X0049980Y0024540D03*
X0049980Y0024380D03*
X0049980Y0024220D03*
X0049980Y0024060D03*
X0049980Y0023900D03*
X0049980Y0023260D03*
X0049980Y0023100D03*
X0049980Y0022940D03*
X0049980Y0022780D03*
X0049980Y0022700D03*
X0049980Y0022540D03*
X0049980Y0022300D03*
X0049900Y0022140D03*
X0049900Y0022060D03*
X0049900Y0021980D03*
X0049900Y0021900D03*
X0049820Y0021820D03*
X0049820Y0021660D03*
X0049820Y0021580D03*
X0049820Y0021500D03*
X0049740Y0021260D03*
X0049740Y0021180D03*
X0049660Y0021020D03*
X0049660Y0020860D03*
X0049580Y0020700D03*
X0049580Y0020540D03*
X0049420Y0020140D03*
X0045260Y0019900D03*
X0045260Y0019740D03*
X0045260Y0019660D03*
X0045260Y0019500D03*
D77*
X0033780Y0019500D03*
X0045300Y0027740D03*
D78*
X0045260Y0027660D03*
X0033820Y0019580D03*
D79*
X0033860Y0019660D03*
X0045220Y0027580D03*
D80*
X0033860Y0019740D03*
D81*
X0034540Y0020620D03*
D82*
X0035700Y0020860D03*
X0035700Y0020940D03*
X0035700Y0021020D03*
X0035700Y0021100D03*
X0035700Y0021180D03*
X0035700Y0021260D03*
X0035700Y0021340D03*
X0035700Y0021420D03*
X0035700Y0021500D03*
X0035700Y0021580D03*
X0035700Y0021660D03*
X0035700Y0021740D03*
X0035700Y0021820D03*
X0035700Y0021900D03*
X0039540Y0023100D03*
X0039540Y0023180D03*
X0039540Y0023260D03*
X0039540Y0023340D03*
X0039540Y0023420D03*
X0039540Y0023500D03*
X0039540Y0023580D03*
X0039540Y0023660D03*
X0039540Y0023740D03*
X0039540Y0023820D03*
X0039540Y0023900D03*
X0039540Y0023980D03*
X0039540Y0024060D03*
X0039540Y0024140D03*
X0043380Y0025340D03*
X0043380Y0025420D03*
X0043380Y0025500D03*
X0043380Y0025580D03*
X0043380Y0025660D03*
X0043380Y0025740D03*
X0043380Y0025820D03*
X0043380Y0025900D03*
X0043380Y0025980D03*
X0043380Y0026060D03*
X0043380Y0026140D03*
X0043380Y0026220D03*
X0043380Y0026300D03*
X0043380Y0026380D03*
X0039540Y0034700D03*
D83*
X0043340Y0025260D03*
X0035740Y0021980D03*
D84*
X0036860Y0022060D03*
X0037020Y0022140D03*
X0037260Y0022300D03*
X0037420Y0022380D03*
X0037660Y0022540D03*
X0037820Y0022620D03*
X0038060Y0022780D03*
X0038220Y0022860D03*
X0038460Y0023020D03*
X0040860Y0024380D03*
X0041020Y0024460D03*
X0041420Y0024700D03*
X0041660Y0024860D03*
X0041820Y0024940D03*
X0042220Y0025180D03*
D85*
X0040580Y0024220D03*
D86*
X0040740Y0024300D03*
X0041220Y0024620D03*
X0044660Y0032620D03*
D87*
X0045180Y0027500D03*
D88*
X0045260Y0027900D03*
D89*
X0044420Y0032700D03*
X0034580Y0032700D03*
D90*
X0035020Y0032860D03*
X0044060Y0032860D03*
D91*
X0035300Y0032940D03*
D92*
X0039500Y0033580D03*
D93*
X0039580Y0033740D03*
D94*
X0039580Y0033820D03*
D95*
X0039500Y0033900D03*
D96*
X0039540Y0034060D03*
D97*
X0039500Y0034380D03*
M02*
