G75*
%MOIN*%
%OFA0B0*%
%FSLAX25Y25*%
%IPPOS*%
%LPD*%
%AMOC8*
5,1,8,0,0,1.08239X$1,22.5*
%
%ADD10C,0.00400*%
%ADD11C,0.00500*%
%ADD12C,0.00800*%
%ADD13R,0.00100X0.00100*%
%ADD14R,0.00400X0.00100*%
%ADD15R,0.00300X0.00100*%
%ADD16R,0.00600X0.00100*%
%ADD17R,0.00900X0.00100*%
%ADD18R,0.00800X0.00100*%
%ADD19R,0.01000X0.00100*%
%ADD20R,0.01100X0.00100*%
%ADD21R,0.01900X0.00100*%
%ADD22R,0.01800X0.00100*%
%ADD23R,0.02100X0.00100*%
%ADD24R,0.02000X0.00100*%
%ADD25R,0.02200X0.00100*%
%ADD26R,0.02300X0.00100*%
%ADD27R,0.02700X0.00100*%
%ADD28R,0.02800X0.00100*%
%ADD29R,0.02600X0.00100*%
%ADD30R,0.02900X0.00100*%
%ADD31R,0.05100X0.00100*%
%ADD32R,0.04900X0.00100*%
%ADD33R,0.05300X0.00100*%
%ADD34R,0.05500X0.00100*%
%ADD35R,0.05700X0.00100*%
%ADD36R,0.05900X0.00100*%
%ADD37R,0.01400X0.00100*%
%ADD38R,0.01300X0.00100*%
%ADD39R,0.01200X0.00100*%
%ADD40R,0.01700X0.00100*%
%ADD41R,0.01500X0.00100*%
%ADD42R,0.00200X0.00100*%
D10*
X0029273Y0005455D02*
X0030207Y0004521D01*
X0031141Y0005455D01*
X0031141Y0007324D01*
X0032220Y0006857D02*
X0032220Y0006390D01*
X0032687Y0005922D01*
X0033621Y0005922D01*
X0034088Y0005455D01*
X0034088Y0004988D01*
X0033621Y0004521D01*
X0032687Y0004521D01*
X0032220Y0004988D01*
X0029273Y0005455D02*
X0029273Y0007324D01*
X0032220Y0006857D02*
X0032687Y0007324D01*
X0033621Y0007324D01*
X0034088Y0006857D01*
X0035166Y0006857D02*
X0035166Y0006390D01*
X0035633Y0005922D01*
X0036567Y0005922D01*
X0037034Y0005455D01*
X0037034Y0004988D01*
X0036567Y0004521D01*
X0035633Y0004521D01*
X0035166Y0004988D01*
X0035166Y0006857D02*
X0035633Y0007324D01*
X0036567Y0007324D01*
X0037034Y0006857D01*
X0038113Y0006857D02*
X0038580Y0007324D01*
X0039514Y0007324D01*
X0039981Y0006857D01*
X0039981Y0004988D01*
X0039514Y0004521D01*
X0038580Y0004521D01*
X0038113Y0004988D01*
X0038113Y0006857D01*
X0041059Y0007324D02*
X0042460Y0007324D01*
X0042927Y0006857D01*
X0042927Y0005922D01*
X0042460Y0005455D01*
X0041059Y0005455D01*
X0041059Y0004521D02*
X0041059Y0007324D01*
X0044006Y0005922D02*
X0045874Y0005922D01*
X0046952Y0005455D02*
X0047419Y0005922D01*
X0048353Y0005922D01*
X0048820Y0005455D01*
X0048820Y0004988D01*
X0048353Y0004521D01*
X0047419Y0004521D01*
X0046952Y0004988D01*
X0046952Y0005455D01*
X0047419Y0005922D02*
X0046952Y0006390D01*
X0046952Y0006857D01*
X0047419Y0007324D01*
X0048353Y0007324D01*
X0048820Y0006857D01*
X0048820Y0006390D01*
X0048353Y0005922D01*
D11*
X0045724Y0019661D02*
X0033126Y0019661D01*
X0033126Y0027535D02*
X0045724Y0027535D01*
X0033323Y0028520D02*
X0033325Y0028547D01*
X0033331Y0028574D01*
X0033340Y0028600D01*
X0033353Y0028624D01*
X0033369Y0028647D01*
X0033388Y0028666D01*
X0033410Y0028683D01*
X0033434Y0028697D01*
X0033459Y0028707D01*
X0033486Y0028714D01*
X0033513Y0028717D01*
X0033541Y0028716D01*
X0033568Y0028711D01*
X0033594Y0028703D01*
X0033618Y0028691D01*
X0033641Y0028675D01*
X0033662Y0028657D01*
X0033679Y0028636D01*
X0033694Y0028612D01*
X0033705Y0028587D01*
X0033713Y0028561D01*
X0033717Y0028534D01*
X0033717Y0028506D01*
X0033713Y0028479D01*
X0033705Y0028453D01*
X0033694Y0028428D01*
X0033679Y0028404D01*
X0033662Y0028383D01*
X0033641Y0028365D01*
X0033619Y0028349D01*
X0033594Y0028337D01*
X0033568Y0028329D01*
X0033541Y0028324D01*
X0033513Y0028323D01*
X0033486Y0028326D01*
X0033459Y0028333D01*
X0033434Y0028343D01*
X0033410Y0028357D01*
X0033388Y0028374D01*
X0033369Y0028393D01*
X0033353Y0028416D01*
X0033340Y0028440D01*
X0033331Y0028466D01*
X0033325Y0028493D01*
X0033323Y0028520D01*
X0034358Y0039604D02*
X0035526Y0040772D01*
X0035526Y0043107D01*
X0036873Y0041940D02*
X0038041Y0043107D01*
X0038041Y0039604D01*
X0036873Y0039604D02*
X0039209Y0039604D01*
X0040557Y0039604D02*
X0040557Y0040188D01*
X0041140Y0040188D01*
X0041140Y0039604D01*
X0040557Y0039604D01*
X0042398Y0040188D02*
X0044734Y0042523D01*
X0044734Y0040188D01*
X0044150Y0039604D01*
X0042982Y0039604D01*
X0042398Y0040188D01*
X0042398Y0042523D01*
X0042982Y0043107D01*
X0044150Y0043107D01*
X0044734Y0042523D01*
X0034358Y0039604D02*
X0033190Y0040772D01*
X0033190Y0043107D01*
D12*
X0004425Y0005823D02*
X0006925Y0003323D01*
X0011925Y0003323D01*
X0014425Y0005823D01*
X0014425Y0010823D01*
X0011925Y0013323D01*
X0014425Y0015823D01*
X0014425Y0020823D01*
X0011925Y0023323D01*
X0014425Y0025823D01*
X0014425Y0030823D01*
X0011925Y0033323D01*
X0014425Y0035823D01*
X0014425Y0040823D01*
X0011925Y0043323D01*
X0006925Y0043323D01*
X0004425Y0040823D01*
X0004425Y0035823D01*
X0006925Y0033323D01*
X0004425Y0030823D01*
X0004425Y0025823D01*
X0006925Y0023323D01*
X0004425Y0020823D01*
X0004425Y0015823D01*
X0006925Y0013323D01*
X0004425Y0010823D01*
X0004425Y0005823D01*
X0064425Y0005823D02*
X0064425Y0010823D01*
X0066925Y0013323D01*
X0064425Y0015823D01*
X0064425Y0020823D01*
X0066925Y0023323D01*
X0064425Y0025823D01*
X0064425Y0030823D01*
X0066925Y0033323D01*
X0064425Y0035823D01*
X0064425Y0040823D01*
X0066925Y0043323D01*
X0071925Y0043323D01*
X0074425Y0040823D01*
X0074425Y0035823D01*
X0071925Y0033323D01*
X0074425Y0030823D01*
X0074425Y0025823D01*
X0071925Y0023323D01*
X0074425Y0020823D01*
X0074425Y0015823D01*
X0071925Y0013323D01*
X0074425Y0010823D01*
X0074425Y0005823D01*
X0071925Y0003323D01*
X0066925Y0003323D01*
X0064425Y0005823D01*
D13*
X0041365Y0030728D03*
X0036965Y0030728D03*
X0036965Y0036628D03*
D14*
X0036915Y0036528D03*
X0036915Y0030828D03*
D15*
X0037965Y0031128D03*
X0040365Y0031128D03*
X0041365Y0030828D03*
X0041365Y0036528D03*
D16*
X0041315Y0036428D03*
X0037015Y0036428D03*
X0037015Y0030928D03*
X0041315Y0030928D03*
D17*
X0036965Y0031028D03*
X0036965Y0036328D03*
X0041365Y0036328D03*
D18*
X0041315Y0031028D03*
D19*
X0037015Y0031128D03*
D20*
X0041365Y0031128D03*
X0037065Y0036228D03*
X0039165Y0037028D03*
X0039165Y0037128D03*
X0039165Y0037228D03*
X0039165Y0037328D03*
D21*
X0040665Y0032328D03*
X0040665Y0032228D03*
X0040765Y0032128D03*
X0040765Y0032028D03*
X0041065Y0031328D03*
X0037665Y0032228D03*
X0037665Y0032328D03*
X0037565Y0032128D03*
X0037565Y0032028D03*
X0037265Y0031328D03*
X0037265Y0031228D03*
D22*
X0041015Y0031228D03*
D23*
X0041065Y0031428D03*
X0041065Y0031528D03*
X0040665Y0032428D03*
X0040665Y0032528D03*
X0040765Y0032828D03*
X0040865Y0032928D03*
X0040865Y0034428D03*
X0040765Y0034528D03*
X0039165Y0036228D03*
X0037565Y0034528D03*
X0037465Y0034428D03*
X0037465Y0032928D03*
X0037565Y0032828D03*
X0037665Y0032528D03*
X0037665Y0032428D03*
X0037265Y0031528D03*
X0037265Y0031428D03*
D24*
X0037315Y0031628D03*
X0037415Y0031728D03*
X0037415Y0031828D03*
X0037515Y0031928D03*
X0040815Y0031928D03*
X0040915Y0031828D03*
X0040915Y0031728D03*
X0041015Y0031628D03*
D25*
X0040715Y0032728D03*
X0037615Y0032728D03*
X0037615Y0032628D03*
D26*
X0037265Y0033028D03*
X0037265Y0034328D03*
X0037665Y0034628D03*
X0040665Y0034628D03*
X0041065Y0034328D03*
X0041065Y0033028D03*
X0040665Y0032628D03*
D27*
X0041365Y0033128D03*
X0041465Y0033328D03*
X0041465Y0033428D03*
X0041565Y0033628D03*
X0041465Y0033728D03*
X0041465Y0034028D03*
X0041365Y0034228D03*
X0039165Y0036128D03*
X0036965Y0034228D03*
X0036765Y0033628D03*
X0036965Y0033128D03*
D28*
X0036815Y0033228D03*
X0036815Y0033328D03*
X0036815Y0033428D03*
X0036815Y0033728D03*
X0036815Y0033828D03*
X0036815Y0033928D03*
X0036815Y0034028D03*
X0036915Y0034128D03*
X0041515Y0033928D03*
X0041515Y0033828D03*
X0041515Y0033528D03*
X0041515Y0033228D03*
D29*
X0036815Y0033528D03*
D30*
X0041465Y0034128D03*
D31*
X0039165Y0034728D03*
X0039165Y0034828D03*
X0039165Y0035228D03*
X0039165Y0035328D03*
D32*
X0039165Y0035128D03*
X0039165Y0035028D03*
X0039165Y0034928D03*
D33*
X0039165Y0035428D03*
D34*
X0039165Y0035528D03*
X0039165Y0035628D03*
D35*
X0039165Y0035728D03*
X0039165Y0036028D03*
D36*
X0039165Y0035928D03*
X0039165Y0035828D03*
D37*
X0037015Y0036128D03*
D38*
X0039165Y0036528D03*
X0039165Y0036628D03*
X0039165Y0036728D03*
X0039165Y0036828D03*
X0039165Y0036928D03*
X0041265Y0036128D03*
D39*
X0041315Y0036228D03*
D40*
X0039165Y0036328D03*
D41*
X0039165Y0036428D03*
D42*
X0041415Y0036628D03*
M02*
