G75*
%MOIN*%
%OFA0B0*%
%FSLAX25Y25*%
%IPPOS*%
%LPD*%
%AMOC8*
5,1,8,0,0,1.08239X$1,22.5*
%
%ADD10C,0.00000*%
%ADD11C,0.07400*%
%ADD12R,0.03740X0.00984*%
%ADD13C,0.01000*%
D10*
X0006906Y0001000D02*
X0071866Y0001000D01*
X0072018Y0001002D01*
X0072170Y0001008D01*
X0072322Y0001018D01*
X0072473Y0001031D01*
X0072624Y0001049D01*
X0072775Y0001070D01*
X0072925Y0001096D01*
X0073074Y0001125D01*
X0073223Y0001158D01*
X0073370Y0001195D01*
X0073517Y0001235D01*
X0073662Y0001280D01*
X0073806Y0001328D01*
X0073949Y0001380D01*
X0074091Y0001435D01*
X0074231Y0001494D01*
X0074370Y0001557D01*
X0074507Y0001623D01*
X0074642Y0001693D01*
X0074775Y0001766D01*
X0074906Y0001843D01*
X0075036Y0001923D01*
X0075163Y0002006D01*
X0075288Y0002092D01*
X0075411Y0002182D01*
X0075531Y0002275D01*
X0075649Y0002371D01*
X0075765Y0002470D01*
X0075878Y0002572D01*
X0075988Y0002676D01*
X0076096Y0002784D01*
X0076200Y0002894D01*
X0076302Y0003007D01*
X0076401Y0003123D01*
X0076497Y0003241D01*
X0076590Y0003361D01*
X0076680Y0003484D01*
X0076766Y0003609D01*
X0076849Y0003736D01*
X0076929Y0003866D01*
X0077006Y0003997D01*
X0077079Y0004130D01*
X0077149Y0004265D01*
X0077215Y0004402D01*
X0077278Y0004541D01*
X0077337Y0004681D01*
X0077392Y0004823D01*
X0077444Y0004966D01*
X0077492Y0005110D01*
X0077537Y0005255D01*
X0077577Y0005402D01*
X0077614Y0005549D01*
X0077647Y0005698D01*
X0077676Y0005847D01*
X0077702Y0005997D01*
X0077723Y0006148D01*
X0077741Y0006299D01*
X0077754Y0006450D01*
X0077764Y0006602D01*
X0077770Y0006754D01*
X0077772Y0006906D01*
X0077772Y0040370D01*
X0077770Y0040522D01*
X0077764Y0040674D01*
X0077754Y0040826D01*
X0077741Y0040977D01*
X0077723Y0041128D01*
X0077702Y0041279D01*
X0077676Y0041429D01*
X0077647Y0041578D01*
X0077614Y0041727D01*
X0077577Y0041874D01*
X0077537Y0042021D01*
X0077492Y0042166D01*
X0077444Y0042310D01*
X0077392Y0042453D01*
X0077337Y0042595D01*
X0077278Y0042735D01*
X0077215Y0042874D01*
X0077149Y0043011D01*
X0077079Y0043146D01*
X0077006Y0043279D01*
X0076929Y0043410D01*
X0076849Y0043540D01*
X0076766Y0043667D01*
X0076680Y0043792D01*
X0076590Y0043915D01*
X0076497Y0044035D01*
X0076401Y0044153D01*
X0076302Y0044269D01*
X0076200Y0044382D01*
X0076096Y0044492D01*
X0075988Y0044600D01*
X0075878Y0044704D01*
X0075765Y0044806D01*
X0075649Y0044905D01*
X0075531Y0045001D01*
X0075411Y0045094D01*
X0075288Y0045184D01*
X0075163Y0045270D01*
X0075036Y0045353D01*
X0074906Y0045433D01*
X0074775Y0045510D01*
X0074642Y0045583D01*
X0074507Y0045653D01*
X0074370Y0045719D01*
X0074231Y0045782D01*
X0074091Y0045841D01*
X0073949Y0045896D01*
X0073806Y0045948D01*
X0073662Y0045996D01*
X0073517Y0046041D01*
X0073370Y0046081D01*
X0073223Y0046118D01*
X0073074Y0046151D01*
X0072925Y0046180D01*
X0072775Y0046206D01*
X0072624Y0046227D01*
X0072473Y0046245D01*
X0072322Y0046258D01*
X0072170Y0046268D01*
X0072018Y0046274D01*
X0071866Y0046276D01*
X0006906Y0046276D01*
X0006754Y0046274D01*
X0006602Y0046268D01*
X0006450Y0046258D01*
X0006299Y0046245D01*
X0006148Y0046227D01*
X0005997Y0046206D01*
X0005847Y0046180D01*
X0005698Y0046151D01*
X0005549Y0046118D01*
X0005402Y0046081D01*
X0005255Y0046041D01*
X0005110Y0045996D01*
X0004966Y0045948D01*
X0004823Y0045896D01*
X0004681Y0045841D01*
X0004541Y0045782D01*
X0004402Y0045719D01*
X0004265Y0045653D01*
X0004130Y0045583D01*
X0003997Y0045510D01*
X0003866Y0045433D01*
X0003736Y0045353D01*
X0003609Y0045270D01*
X0003484Y0045184D01*
X0003361Y0045094D01*
X0003241Y0045001D01*
X0003123Y0044905D01*
X0003007Y0044806D01*
X0002894Y0044704D01*
X0002784Y0044600D01*
X0002676Y0044492D01*
X0002572Y0044382D01*
X0002470Y0044269D01*
X0002371Y0044153D01*
X0002275Y0044035D01*
X0002182Y0043915D01*
X0002092Y0043792D01*
X0002006Y0043667D01*
X0001923Y0043540D01*
X0001843Y0043410D01*
X0001766Y0043279D01*
X0001693Y0043146D01*
X0001623Y0043011D01*
X0001557Y0042874D01*
X0001494Y0042735D01*
X0001435Y0042595D01*
X0001380Y0042453D01*
X0001328Y0042310D01*
X0001280Y0042166D01*
X0001235Y0042021D01*
X0001195Y0041874D01*
X0001158Y0041727D01*
X0001125Y0041578D01*
X0001096Y0041429D01*
X0001070Y0041279D01*
X0001049Y0041128D01*
X0001031Y0040977D01*
X0001018Y0040826D01*
X0001008Y0040674D01*
X0001002Y0040522D01*
X0001000Y0040370D01*
X0001000Y0006906D01*
X0001002Y0006754D01*
X0001008Y0006602D01*
X0001018Y0006450D01*
X0001031Y0006299D01*
X0001049Y0006148D01*
X0001070Y0005997D01*
X0001096Y0005847D01*
X0001125Y0005698D01*
X0001158Y0005549D01*
X0001195Y0005402D01*
X0001235Y0005255D01*
X0001280Y0005110D01*
X0001328Y0004966D01*
X0001380Y0004823D01*
X0001435Y0004681D01*
X0001494Y0004541D01*
X0001557Y0004402D01*
X0001623Y0004265D01*
X0001693Y0004130D01*
X0001766Y0003997D01*
X0001843Y0003866D01*
X0001923Y0003736D01*
X0002006Y0003609D01*
X0002092Y0003484D01*
X0002182Y0003361D01*
X0002275Y0003241D01*
X0002371Y0003123D01*
X0002470Y0003007D01*
X0002572Y0002894D01*
X0002676Y0002784D01*
X0002784Y0002676D01*
X0002894Y0002572D01*
X0003007Y0002470D01*
X0003123Y0002371D01*
X0003241Y0002275D01*
X0003361Y0002182D01*
X0003484Y0002092D01*
X0003609Y0002006D01*
X0003736Y0001923D01*
X0003866Y0001843D01*
X0003997Y0001766D01*
X0004130Y0001693D01*
X0004265Y0001623D01*
X0004402Y0001557D01*
X0004541Y0001494D01*
X0004681Y0001435D01*
X0004823Y0001380D01*
X0004966Y0001328D01*
X0005110Y0001280D01*
X0005255Y0001235D01*
X0005402Y0001195D01*
X0005549Y0001158D01*
X0005698Y0001125D01*
X0005847Y0001096D01*
X0005997Y0001070D01*
X0006148Y0001049D01*
X0006299Y0001031D01*
X0006450Y0001018D01*
X0006602Y0001008D01*
X0006754Y0001002D01*
X0006906Y0001000D01*
D11*
X0009425Y0008323D03*
X0009425Y0018323D03*
X0009425Y0028323D03*
X0009425Y0038323D03*
X0069425Y0038323D03*
X0069425Y0028323D03*
X0069425Y0018323D03*
X0069425Y0008323D03*
D12*
X0044984Y0020547D03*
X0044984Y0022492D03*
X0044984Y0024476D03*
X0044984Y0026421D03*
X0033843Y0026421D03*
X0033843Y0024476D03*
X0033843Y0022492D03*
X0033843Y0020547D03*
D13*
X0027634Y0020547D01*
X0015567Y0008480D01*
X0009583Y0008480D01*
X0009425Y0008323D01*
X0009425Y0018323D02*
X0009819Y0018717D01*
X0022654Y0018717D01*
X0025016Y0021079D01*
X0026429Y0022492D01*
X0033843Y0022492D01*
X0033843Y0024476D02*
X0026343Y0024476D01*
X0022654Y0028165D01*
X0009583Y0028165D01*
X0009425Y0028323D01*
X0009425Y0038323D02*
X0009504Y0038402D01*
X0015567Y0038402D01*
X0027547Y0026421D01*
X0033843Y0026421D01*
X0044984Y0026421D02*
X0050831Y0026421D01*
X0062811Y0038402D01*
X0069346Y0038402D01*
X0069425Y0038323D01*
X0068795Y0028953D02*
X0056512Y0028953D01*
X0052035Y0024476D01*
X0044984Y0024476D01*
X0044984Y0022492D02*
X0051949Y0022492D01*
X0056512Y0017929D01*
X0069031Y0017929D01*
X0069425Y0018323D01*
X0069268Y0008480D02*
X0062811Y0008480D01*
X0050744Y0020547D01*
X0044984Y0020547D01*
X0068795Y0028953D02*
X0069425Y0028323D01*
X0069268Y0008480D02*
X0069425Y0008323D01*
M02*
